HIERARCHY
ROOT hips
{
	OFFSET -0.003675 0.299928 -0.021708
	CHANNELS 6 Xposition Yposition Zposition Xrotation Yrotation Zrotation
	JOINT LowerBack
	{
		OFFSET 0.000919 0.177588 0.009275
		CHANNELS 3 Xrotation Yrotation Zrotation
		JOINT spine
		{
			OFFSET 0.000919 0.177588 0.009275
			CHANNELS 3 Xrotation Yrotation Zrotation
			JOINT chest
			{
				OFFSET 0.000456 0.100015 0.004638
				CHANNELS 3 Xrotation Yrotation Zrotation
				JOINT neck
				{
					OFFSET 0.000456 0.100015 0.004638
					CHANNELS 3 Xrotation Yrotation Zrotation
					JOINT head
					{
						OFFSET 0.000924 0.155147 0.009274
						CHANNELS 6 Xposition Yposition Zposition Xrotation Yrotation Zrotation
						End Site
						{
							OFFSET 0.000000 0.153400 0.000000
						}
					}
				}
				JOINT shoulder.L
				{
					OFFSET 0.019937 0.078966 0.057518
					CHANNELS 6 Xposition Yposition Zposition Yrotation Xrotation Zrotation
					JOINT upper_arm.L
					{
						OFFSET 0.177024 -0.020465 -0.095062
						CHANNELS 6 Xposition Yposition Zposition Xrotation Yrotation Zrotation
						JOINT forearm.L
						{
							OFFSET 0.247100 -0.135500 -0.061800
							CHANNELS 3 Xrotation Yrotation Zrotation
							JOINT hand.L
							{
								OFFSET 0.217000 -0.143000 0.039300
								CHANNELS 3 Xrotation Yrotation Zrotation
								JOINT palm.01.L
								{
									OFFSET 0.021770 -0.038291 0.012954
									CHANNELS 6 Xposition Yposition Zposition Yrotation Xrotation Zrotation
									JOINT f_index.01.L
									{
										OFFSET 0.053215 -0.044137 0.008236
										CHANNELS 3 Xrotation Yrotation Zrotation
										JOINT f_index.02.L
										{
											OFFSET 0.036108 -0.024723 -0.010656
											CHANNELS 3 Xrotation Yrotation Zrotation
											JOINT f_index.03.L
											{
												OFFSET 0.021342 -0.014948 -0.010846
												CHANNELS 3 Xrotation Yrotation Zrotation
												End Site
												{
													OFFSET 0.015600 -0.009860 -0.013421
												}
											}
										}
									}
									JOINT thumb.01.L
									{
										OFFSET -0.009090 -0.002348 -0.024223
										CHANNELS 6 Xposition Yposition Zposition Xrotation Yrotation Zrotation
										JOINT thumb.02.L
										{
											OFFSET 0.019713 -0.035076 -0.011120
											CHANNELS 3 Xrotation Yrotation Zrotation
											JOINT thumb.03.L
											{
												OFFSET 0.024877 -0.021748 -0.005176
												CHANNELS 3 Xrotation Yrotation Zrotation
												End Site
												{
													OFFSET 0.016125 -0.013029 -0.001569
												}
											}
										}
									}
								}
								JOINT palm.02.L
								{
									OFFSET 0.032823 -0.025104 0.012281
									CHANNELS 6 Xposition Yposition Zposition Yrotation Xrotation Zrotation
									JOINT f_middle.01.L
									{
										OFFSET 0.055723 -0.038469 0.008037
										CHANNELS 3 Xrotation Yrotation Zrotation
										JOINT f_middle.02.L
										{
											OFFSET 0.038167 -0.027473 -0.015582
											CHANNELS 3 Xrotation Yrotation Zrotation
											JOINT f_middle.03.L
											{
												OFFSET 0.021707 -0.016587 -0.017037
												CHANNELS 3 Xrotation Yrotation Zrotation
												End Site
												{
													OFFSET 0.014112 -0.010584 -0.014294
												}
											}
										}
									}
								}
								JOINT palm.03.L
								{
									OFFSET 0.039230 -0.011402 0.008390
									CHANNELS 6 Xposition Yposition Zposition Yrotation Xrotation Zrotation
									JOINT f_ring.01.L
									{
										OFFSET 0.061796 -0.031470 0.007910
										CHANNELS 3 Xrotation Yrotation Zrotation
										JOINT f_ring.02.L
										{
											OFFSET 0.033092 -0.023401 -0.019127
											CHANNELS 3 Xrotation Yrotation Zrotation
											JOINT f_ring.03.L
											{
												OFFSET 0.021392 -0.015362 -0.017824
												CHANNELS 3 Xrotation Yrotation Zrotation
												End Site
												{
													OFFSET 0.008670 -0.007297 -0.014686
												}
											}
										}
									}
								}
								JOINT palm.04.L
								{
									OFFSET 0.043417 0.002450 0.002889
									CHANNELS 6 Xposition Yposition Zposition Yrotation Xrotation Zrotation
									JOINT f_pinky.01.L
									{
										OFFSET 0.069986 -0.026156 0.003627
										CHANNELS 3 Xrotation Yrotation Zrotation
										JOINT f_pinky.02.L
										{
											OFFSET 0.018520 -0.012813 -0.016429
											CHANNELS 3 Xrotation Yrotation Zrotation
											JOINT f_pinky.03.L
											{
												OFFSET 0.013822 -0.009796 -0.014947
												CHANNELS 3 Xrotation Yrotation Zrotation
												End Site
												{
													OFFSET 0.007238 -0.006103 -0.011657
												}
											}
										}
									}
								}
							}
						}
					}
				}
				JOINT shoulder.R
				{
					OFFSET -0.016662 0.078957 0.057696
					CHANNELS 6 Xposition Yposition Zposition Yrotation Xrotation Zrotation
					JOINT upper_arm.R
					{
						OFFSET -0.176972 -0.020537 -0.095144
						CHANNELS 6 Xposition Yposition Zposition Xrotation Yrotation Zrotation
						JOINT forearm.R
						{
							OFFSET -0.247100 -0.135500 -0.061800
							CHANNELS 3 Xrotation Yrotation Zrotation
							JOINT hand.R
							{
								OFFSET -0.217000 -0.143000 0.039300
								CHANNELS 3 Xrotation Yrotation Zrotation
								JOINT palm.01.R
								{
									OFFSET -0.021773 -0.038278 0.012988
									CHANNELS 6 Xposition Yposition Zposition Yrotation Xrotation Zrotation
									JOINT f_index.01.R
									{
										OFFSET -0.053212 -0.044139 0.008249
										CHANNELS 3 Xrotation Yrotation Zrotation
										JOINT f_index.02.R
										{
											OFFSET -0.036049 -0.024835 -0.010634
											CHANNELS 3 Xrotation Yrotation Zrotation
											JOINT f_index.03.R
											{
												OFFSET -0.021371 -0.014881 -0.010866
												CHANNELS 3 Xrotation Yrotation Zrotation
												End Site
												{
													OFFSET -0.015584 -0.009883 -0.013422
												}
											}
										}
									}
									JOINT thumb.01.R
									{
										OFFSET 0.009113 -0.002381 -0.024211
										CHANNELS 6 Xposition Yposition Zposition Xrotation Yrotation Zrotation
										JOINT thumb.02.R
										{
											OFFSET -0.019694 -0.035097 -0.011088
											CHANNELS 3 Xrotation Yrotation Zrotation
											JOINT thumb.03.R
											{
												OFFSET -0.024867 -0.021762 -0.005168
												CHANNELS 3 Xrotation Yrotation Zrotation
												End Site
												{
													OFFSET -0.016120 -0.013036 -0.001565
												}
											}
										}
									}
								}
								JOINT palm.02.R
								{
									OFFSET -0.032828 -0.025095 0.012286
									CHANNELS 6 Xposition Yposition Zposition Yrotation Xrotation Zrotation
									JOINT f_middle.01.R
									{
										OFFSET -0.055721 -0.038472 0.008040
										CHANNELS 3 Xrotation Yrotation Zrotation
										JOINT f_middle.02.R
										{
											OFFSET -0.038101 -0.027593 -0.015557
											CHANNELS 3 Xrotation Yrotation Zrotation
											JOINT f_middle.03.R
											{
												OFFSET -0.021730 -0.016530 -0.017054
												CHANNELS 3 Xrotation Yrotation Zrotation
												End Site
												{
													OFFSET -0.014096 -0.010608 -0.014293
												}
											}
										}
									}
								}
								JOINT palm.03.R
								{
									OFFSET -0.039192 -0.011488 0.008390
									CHANNELS 6 Xposition Yposition Zposition Yrotation Xrotation Zrotation
									JOINT f_ring.01.R
									{
										OFFSET -0.061839 -0.031387 0.007876
										CHANNELS 3 Xrotation Yrotation Zrotation
										JOINT f_ring.02.R
										{
											OFFSET -0.033068 -0.023437 -0.019125
											CHANNELS 3 Xrotation Yrotation Zrotation
											JOINT f_ring.03.R
											{
												OFFSET -0.021371 -0.015393 -0.017822
												CHANNELS 3 Xrotation Yrotation Zrotation
												End Site
												{
													OFFSET -0.008654 -0.007321 -0.014684
												}
											}
										}
									}
								}
								JOINT palm.04.R
								{
									OFFSET -0.043421 0.002443 0.002845
									CHANNELS 6 Xposition Yposition Zposition Yrotation Xrotation Zrotation
									JOINT f_pinky.01.R
									{
										OFFSET -0.069983 -0.026169 0.003599
										CHANNELS 3 Xrotation Yrotation Zrotation
										JOINT f_pinky.02.R
										{
											OFFSET -0.018501 -0.012842 -0.016428
											CHANNELS 3 Xrotation Yrotation Zrotation
											JOINT f_pinky.03.R
											{
												OFFSET -0.013806 -0.009821 -0.014946
												CHANNELS 3 Xrotation Yrotation Zrotation
												End Site
												{
													OFFSET -0.007226 -0.006121 -0.011655
												}
											}
										}
									}
								}
							}
						}
					}
				}
			}
		}
	}
	JOINT pelvis.L
	{
		OFFSET 0.000000 0.000000 0.000000
		CHANNELS 6 Xposition Yposition Zposition Xrotation Yrotation Zrotation
		JOINT thigh.L
		{
			OFFSET 0.101675 0.001054 -0.000000
			CHANNELS 3 Xrotation Yrotation Zrotation
			JOINT shin.L
			{
				OFFSET 0.000000 -0.534800 0.041000
				CHANNELS 3 Xrotation Yrotation Zrotation
				JOINT foot.L
				{
					OFFSET 0.000000 -0.452000 -0.044800
					CHANNELS 3 Xrotation Yrotation Zrotation
					JOINT toe.L
					{
						OFFSET -0.000000 -0.068500 0.109600
						CHANNELS 3 Xrotation Yrotation Zrotation
						End Site
						{
							OFFSET -0.000000 0.000000 0.067200
						}
					}
				}
				JOINT heel.L
				{
					OFFSET 0.000000 -0.452000 -0.044800
					CHANNELS 3 Xrotation Yrotation Zrotation
					JOINT heel.02.L
					{
						OFFSET -0.038000 -0.085200 0.016200
						CHANNELS 6 Xposition Yposition Zposition Xrotation Yrotation Zrotation
						End Site
						{
							OFFSET 0.080000 -0.000000 0.000000
						}
					}
				}
			}
		}
	}
	JOINT pelvis.R
	{
		OFFSET 0.000000 0.000000 0.000000
		CHANNELS 6 Xposition Yposition Zposition Xrotation Yrotation Zrotation
		JOINT thigh.R
		{
			OFFSET -0.094325 0.001054 0.000000
			CHANNELS 3 Xrotation Yrotation Zrotation
			JOINT shin.R
			{
				OFFSET 0.000000 -0.534800 0.041000
				CHANNELS 3 Xrotation Yrotation Zrotation
				JOINT foot.R
				{
					OFFSET 0.000000 -0.452000 -0.044800
					CHANNELS 3 Xrotation Yrotation Zrotation
					JOINT toe.R
					{
						OFFSET -0.000000 -0.068500 0.109600
						CHANNELS 3 Xrotation Yrotation Zrotation
						End Site
						{
							OFFSET -0.000000 0.000000 0.067200
						}
					}
				}
				JOINT heel.R
				{
					OFFSET 0.000000 -0.452000 -0.044800
					CHANNELS 3 Xrotation Yrotation Zrotation
					JOINT heel.02.R
					{
						OFFSET 0.038000 -0.085200 0.016200
						CHANNELS 6 Xposition Yposition Zposition Xrotation Yrotation Zrotation
						End Site
						{
							OFFSET -0.080000 0.000000 -0.000000
						}
					}
				}
			}
		}
	}
}
MOTION
Frames: 4
Frame Time: 0.041667
-0.003733 0.199918 0.004124 51.185858 9.456179 70.516690 0.000001 -0.000000 -0.000001 -0.000000 -0.000003 0.000001 -0.000001 -0.000001 -0.000000 -0.000002 0.000001 -0.000002 0.000924 0.155148 0.009274 -20.213883 0.068042 13.827151 0.019937 0.078966 0.057518 16.749333 6.134502 36.688908 0.177024 -0.020465 -0.095062 -19.608532 7.416831 -45.966429 -52.570805 46.526969 -100.102487 -0.000006 -0.000007 -0.000003 0.021770 -0.038291 0.012954 0.000002 0.000001 -0.000001 -0.000002 -0.000002 -0.000000 -0.000000 0.000001 0.000008 0.000002 0.000003 0.000002 -0.009090 -0.002348 -0.024224 -0.000000 -0.000003 0.000004 -0.000001 -0.000002 -0.000001 -0.000000 0.000001 -0.000001 0.032823 -0.025104 0.012281 0.000001 0.000000 0.000004 0.000001 0.000002 -0.000005 -0.000003 0.000000 0.000001 -0.000000 -0.000000 0.000005 0.039230 -0.011402 0.008390 -0.000002 -0.000001 0.000003 0.000000 -0.000002 0.000001 0.000001 0.000005 0.000003 -0.000000 -0.000003 0.000003 0.043417 0.002450 0.002889 -0.000001 -0.000002 -0.000002 0.000001 -0.000003 -0.000000 0.000001 0.000001 -0.000001 -0.000000 -0.000003 -0.000001 -0.016662 0.078956 0.057696 11.644572 1.871787 -33.957197 -0.176972 -0.020537 -0.095144 3.740448 -16.577890 56.193759 43.635763 -41.067148 -141.252629 -0.000005 0.000003 0.000001 -0.021773 -0.038278 0.012988 0.000003 0.000000 -0.000005 -0.000002 0.000001 0.000001 0.000001 0.000001 -0.000008 -0.000003 0.000000 0.000006 0.009114 -0.002381 -0.024211 0.000000 -0.000004 0.000000 0.000004 -0.000001 0.000005 0.000001 0.000002 -0.000004 -0.032828 -0.025095 0.012286 0.000003 -0.000003 -0.000001 -0.000001 0.000002 -0.000001 0.000003 -0.000001 -0.000001 0.000003 0.000003 -0.000004 -0.039192 -0.011488 0.008390 0.000002 0.000000 -0.000002 0.000005 0.000001 -0.000007 -0.000001 -0.000003 -0.000000 0.000002 -0.000002 -0.000003 -0.043421 0.002443 0.002844 0.000001 -0.000002 0.000002 -0.000000 0.000004 -0.000004 -0.000000 -0.000006 -0.000004 -0.000001 0.000000 0.000002 -0.000000 0.000000 0.000000 -1.968430 1.303451 -15.648138 35.156456 -0.893860 -13.574402 -9.078077 -0.275574 2.783515 -0.000002 -0.000001 0.000001 0.000000 -0.000001 -0.000001 0.000000 0.000000 0.000000 -0.038000 -0.085200 0.016200 -0.000001 -0.000003 -0.000000 -0.000000 0.000000 0.000000 -1.879973 1.279665 -14.415941 25.119703 -0.498353 -5.015612 -7.197396 0.708763 -7.169623 -0.000002 -0.000001 -0.000004 0.000003 0.000000 -0.000001 0.000007 -0.000001 -0.000004 0.038000 -0.085200 0.016200 -0.000000 0.000005 -0.000003 
-0.003238 0.200600 0.004148 48.645953 9.082176 70.517605 -0.000002 0.000002 -0.000004 -0.000002 0.000002 -0.000001 -0.000001 0.000000 -0.000001 0.000000 -0.000002 -0.000001 0.000924 0.155148 0.009274 -17.797072 0.062315 9.792336 0.019937 0.078966 0.057518 14.681452 5.899349 37.333729 0.177025 -0.020465 -0.095062 -22.238572 7.739076 -47.417045 -60.450125 42.624041 -89.676074 0.000002 0.000002 -0.000003 0.021770 -0.038291 0.012954 0.000001 0.000000 -0.000004 -0.000003 0.000001 0.000001 -0.000001 -0.000000 0.000005 -0.000000 -0.000002 -0.000003 -0.009090 -0.002348 -0.024224 -0.000002 -0.000002 0.000004 0.000002 -0.000002 0.000003 -0.000001 0.000001 0.000004 0.032823 -0.025104 0.012281 0.000001 0.000000 0.000002 0.000001 0.000005 -0.000007 -0.000004 -0.000004 -0.000003 -0.000001 -0.000004 -0.000000 0.039230 -0.011402 0.008390 0.000003 -0.000001 0.000001 0.000001 -0.000002 0.000001 -0.000001 0.000008 -0.000000 -0.000003 -0.000006 0.000003 0.043417 0.002450 0.002889 -0.000001 0.000000 -0.000003 0.000001 0.000000 -0.000004 -0.000001 0.000001 -0.000002 0.000003 0.000003 -0.000003 -0.016662 0.078957 0.057696 8.449191 2.448614 -35.057080 -0.176972 -0.020537 -0.095144 -3.258050 -15.245242 52.370079 46.969818 -22.954135 -128.436148 -0.000000 0.000001 0.000000 -0.021773 -0.038278 0.012988 -0.000003 0.000004 -0.000003 -0.000005 0.000003 -0.000003 0.000003 -0.000004 -0.000003 0.000002 0.000000 0.000004 0.009114 -0.002381 -0.024211 0.000001 0.000002 -0.000002 -0.000001 -0.000004 0.000000 0.000002 -0.000004 -0.000003 -0.032828 -0.025095 0.012286 -0.000002 0.000003 0.000001 -0.000000 0.000002 0.000001 -0.000000 0.000000 -0.000000 -0.000002 0.000000 -0.000005 -0.039192 -0.011488 0.008390 -0.000001 0.000005 0.000001 -0.000003 0.000005 -0.000003 0.000004 -0.000000 -0.000000 0.000001 0.000001 0.000001 -0.043421 0.002443 0.002845 -0.000002 0.000000 0.000000 -0.000005 0.000001 0.000001 -0.000001 -0.000003 0.000000 -0.000003 0.000004 -0.000003 -0.000000 0.000000 -0.000000 -1.955720 1.235154 -14.947066 38.495482 -0.818955 -12.740691 -12.278836 -0.056335 0.570536 0.000000 -0.000001 -0.000003 -0.000001 -0.000003 -0.000004 0.000003 -0.000002 -0.000002 -0.038000 -0.085200 0.016200 0.000000 0.000003 -0.000002 0.000000 0.000000 -0.000000 -1.870192 1.213269 -13.714713 27.631021 -0.667158 -7.058403 -9.231285 0.573361 -5.794463 0.000002 -0.000002 -0.000002 0.000003 -0.000000 0.000000 0.000005 -0.000001 0.000002 0.038000 -0.085200 0.016200 0.000003 0.000002 -0.000001 
-0.003201 0.198706 0.001755 59.008948 9.338854 65.730954 -0.000001 -0.000003 -0.000001 -0.000000 -0.000003 -0.000001 0.000002 -0.000000 -0.000001 0.000001 0.000000 -0.000001 0.000924 0.155148 0.009274 -28.767903 0.115783 -1.216102 0.019937 0.078966 0.057518 17.864906 5.676154 32.463199 0.177024 -0.020465 -0.095062 -43.955126 21.507409 -68.603445 -60.919407 13.644229 -70.490769 -0.000005 -0.000001 0.000005 0.021770 -0.038291 0.012954 -0.000001 0.000001 0.000001 0.000000 0.000000 -0.000002 0.000001 -0.000000 0.000005 0.000002 0.000001 -0.000000 -0.009090 -0.002348 -0.024224 0.000001 -0.000001 -0.000001 -0.000001 0.000000 0.000001 0.000001 0.000002 0.000003 0.032823 -0.025104 0.012281 -0.000001 0.000001 0.000002 0.000004 -0.000001 -0.000003 -0.000003 -0.000003 0.000003 0.000001 -0.000000 0.000000 0.039230 -0.011402 0.008390 0.000001 -0.000001 0.000003 0.000002 0.000002 -0.000000 -0.000001 0.000001 0.000003 0.000004 -0.000000 0.000002 0.043417 0.002450 0.002889 -0.000003 -0.000001 -0.000005 -0.000002 -0.000006 -0.000002 0.000002 0.000001 -0.000001 -0.000000 0.000004 -0.000002 -0.016662 0.078957 0.057696 18.549067 6.283062 -49.643242 -0.176972 -0.020537 -0.095144 -15.252241 -6.454986 27.059510 27.588437 14.822204 -89.292955 0.000001 0.000001 0.000005 -0.021773 -0.038278 0.012988 0.000003 -0.000002 -0.000003 0.000003 0.000007 -0.000006 0.000001 0.000003 -0.000004 -0.000002 0.000003 0.000004 0.009114 -0.002381 -0.024211 -0.000000 0.000000 -0.000002 0.000001 0.000001 0.000000 -0.000001 -0.000003 -0.000001 -0.032828 -0.025095 0.012286 0.000003 -0.000001 0.000001 -0.000003 0.000009 0.000001 -0.000001 -0.000002 -0.000004 -0.000002 0.000003 0.000001 -0.039192 -0.011488 0.008390 0.000006 0.000000 0.000001 -0.000002 0.000005 -0.000003 -0.000001 0.000002 -0.000002 -0.000000 0.000004 -0.000000 -0.043421 0.002443 0.002845 0.000002 -0.000001 -0.000001 -0.000002 0.000006 -0.000001 -0.000002 0.000002 -0.000000 -0.000000 0.000000 0.000000 0.000000 0.000000 -0.000000 -1.928287 0.968897 -12.086905 34.729425 -0.928509 -13.983099 -11.653682 -0.054373 0.550725 -0.000003 0.000001 -0.000000 -0.000001 0.000004 -0.000004 -0.000002 0.000000 -0.000001 -0.038000 -0.085200 0.016200 0.000002 -0.000001 -0.000005 0.000000 0.000000 -0.000000 -1.853282 0.953652 -10.853976 21.797159 -0.650659 -7.269370 -19.020934 0.691985 -6.998917 0.000000 0.000000 -0.000000 0.000002 -0.000001 -0.000001 0.000005 0.000000 -0.000002 0.038000 -0.085200 0.016200 -0.000003 0.000003 -0.000002 
-0.003329 0.199572 0.002009 59.107405 10.389793 63.572546 -0.000002 -0.000001 -0.000001 -0.000001 -0.000002 -0.000001 0.000001 -0.000002 0.000000 0.000002 -0.000002 0.000001 0.000924 0.155147 0.009274 -30.344639 0.122776 3.731453 0.019937 0.078966 0.057518 13.977025 4.984545 33.188186 0.177025 -0.020465 -0.095062 -38.740078 17.693574 -65.822362 -54.889425 23.451484 -83.773315 -0.000002 -0.000000 0.000001 0.021770 -0.038291 0.012954 -0.000001 0.000002 0.000001 -0.000001 -0.000001 -0.000000 -0.000000 -0.000000 0.000007 0.000001 0.000004 -0.000004 -0.009090 -0.002348 -0.024223 -0.000000 -0.000001 -0.000001 -0.000003 0.000003 -0.000004 0.000001 -0.000001 0.000003 0.032823 -0.025104 0.012281 0.000001 0.000000 0.000007 0.000000 0.000001 -0.000003 -0.000002 -0.000007 0.000003 -0.000002 -0.000003 0.000003 0.039230 -0.011402 0.008390 0.000003 0.000001 0.000004 -0.000002 -0.000003 0.000003 -0.000001 0.000003 0.000003 -0.000002 -0.000002 0.000003 0.043417 0.002450 0.002889 -0.000001 0.000001 0.000002 0.000000 -0.000001 -0.000002 0.000002 0.000002 0.000000 0.000003 0.000000 -0.000002 -0.016662 0.078957 0.057696 16.258138 5.346532 -45.922036 -0.176972 -0.020537 -0.095144 -15.589190 -7.211800 29.605004 26.828986 12.357397 -91.017967 0.000000 0.000000 0.000000 -0.021773 -0.038278 0.012988 -0.000000 0.000001 -0.000003 -0.000006 -0.000002 0.000002 -0.000000 -0.000000 -0.000001 0.000003 0.000005 0.000001 0.009114 -0.002381 -0.024212 -0.000002 -0.000004 0.000000 -0.000004 -0.000003 -0.000002 0.000001 -0.000003 -0.000003 -0.032828 -0.025095 0.012286 -0.000001 0.000001 -0.000001 -0.000001 0.000003 -0.000001 -0.000000 -0.000004 0.000003 -0.000005 0.000001 -0.000004 -0.039192 -0.011488 0.008390 -0.000001 0.000003 0.000003 0.000003 0.000003 -0.000005 -0.000003 -0.000001 -0.000004 -0.000001 0.000003 -0.000001 -0.043421 0.002443 0.002845 -0.000001 0.000003 0.000002 -0.000006 0.000005 -0.000001 -0.000000 0.000001 -0.000000 -0.000000 0.000000 0.000000 -0.000000 0.000000 -0.000000 -1.929575 0.952520 -11.901027 34.477709 -0.842779 -12.823608 -11.826863 -0.118499 1.197758 0.000000 0.000003 -0.000002 -0.000001 -0.000001 -0.000004 0.000002 0.000003 -0.000001 -0.038000 -0.085200 0.016200 0.000002 -0.000001 -0.000002 -0.000000 0.000000 -0.000000 -1.855125 0.937629 -10.668077 21.640942 -0.610167 -6.745850 -20.576356 0.748632 -7.575234 0.000003 0.000000 -0.000001 0.000002 -0.000000 0.000001 0.000003 -0.000003 -0.000002 0.038000 -0.085200 0.016200 0.000003 -0.000001 0.000005 
